<svg width="94" height="40" viewBox="0 0 94 40" fill="none" xmlns="http://www.w3.org/2000/svg">
<path fill-rule="evenodd" clip-rule="evenodd" d="M15.3259 1.13463C16.4045 0.38131 17.5488 0 18.7775 0C20.0062 0 21.0848 0.38131 22.0134 1.13463C22.9513 1.88795 23.6829 2.89238 24.2081 4.16651C24.7334 5.44065 24.996 6.84498 24.996 8.39813C24.996 9.95127 24.6959 11.3742 24.0956 12.6483C23.5047 13.9225 22.6981 14.9362 21.6945 15.6895C20.6909 16.4521 19.5747 16.8335 18.3554 16.8335C17.1267 16.8335 16.0106 16.4521 15.007 15.6895C14.0034 14.9362 13.1968 13.9225 12.5965 12.6483C12.0056 11.3742 11.7054 9.95127 11.7054 8.39813C11.7054 6.84498 12.0431 5.44065 12.709 4.16651C13.375 2.89238 14.2473 1.88795 15.3259 1.13463ZM19.9405 6.26837C19.5747 5.67315 19.087 5.37554 18.4867 5.37554L15.5041 5.41275L17.5113 5.68245C17.1267 5.93356 16.8078 6.30557 16.564 6.78918C16.3201 7.2728 16.1982 7.81221 16.1982 8.40743C16.1982 9.24445 16.4045 9.96057 16.8266 10.5558C17.2487 11.151 17.7551 11.4486 18.3554 11.4486C18.9463 11.4486 19.4528 11.151 19.8749 10.5558C20.2969 9.96057 20.5033 9.24445 20.5033 8.40743C20.5033 7.5704 20.3157 6.85428 19.9405 6.26837ZM10.9832 3.32019C11.4053 4.09211 11.6117 5.10584 11.6117 6.36137C11.6117 7.98891 11.0395 9.37465 9.89523 10.5186C8.75095 11.6625 7.32528 12.2763 5.60886 12.3786V16.8335H0.947316V3.562L0 0.344109C0.460928 0.344109 0.95669 0.335474 1.4705 0.326524L1.47051 0.326524H1.47051H1.47051L1.52884 0.325509C4.14568 0.260407 7.25963 0.195305 9.31371 1.50664C10.0172 1.93445 10.5705 2.53897 10.9832 3.32019ZM4.36141 4.19441H4.00499L5.61824 4.51992L5.60886 8.52833C6.12473 8.44463 6.55618 8.20282 6.89383 7.80291C7.23149 7.403 7.40032 6.91939 7.40032 6.36137C7.40032 5.85916 7.26901 5.41275 7.01577 5.03144C6.76252 4.65013 6.42487 4.38972 6.00279 4.26881C5.82459 4.22231 5.57134 4.19441 5.25245 4.19441C4.93355 4.18511 4.63341 4.18511 4.36141 4.19441ZM29.8076 7.4402L29.3856 8.59343L29.7701 7.17979L28.7571 0.344109L23.8423 0.353409L24.996 3.5806L27.1345 16.8335H31.5334L32.6871 11.0859L33.8314 16.8335H38.2303L40.4814 2.89865L40.6877 3.5806V16.8335H50.2265V12.5925L43.9798 12.6018L45.1616 12.2577V10.7046H49.645V6.47297H45.1616V4.87333L43.8204 4.55712L50.2265 4.57572V0.805543L51.0613 3.5434V16.8335H55.7228V12.9087L58.4053 16.8335H62.7855H63.0669H67.2594V11.0487L66.2934 10.6674L71.7522 10.7046V6.47297H67.2594V4.92913L66.3403 4.58502L67.2594 4.57572H72.3243V1.29823L72.7182 3.5806C72.7276 3.6457 72.7182 3.92471 72.6901 4.13861C72.6807 4.22231 72.6807 4.27812 72.6807 4.30602C72.5588 5.89636 72.5775 7.5239 72.7276 9.17935C72.8777 10.8348 73.2622 12.3228 73.8719 13.6342C74.4909 14.9455 75.4382 15.8848 76.7138 16.4521C78.2427 17.0753 79.6965 16.9172 81.094 15.9778C82.1539 15.1966 82.8761 13.9597 83.2606 12.267C83.6452 10.5744 83.8422 8.77014 83.8328 6.84498C83.8328 4.91983 83.7765 3.20859 83.6733 1.72055C83.6546 1.33924 83.6358 0.976526 83.6171 0.651017L79.2275 0.390611C79.2368 0.533007 79.2483 0.691284 79.261 0.865442L79.261 0.865627C79.2741 1.04403 79.2883 1.23911 79.3025 1.45084C79.387 2.50177 79.4526 3.7294 79.5183 5.14304C79.5839 6.54738 79.5745 7.87731 79.4995 9.13285C79.4245 10.3884 79.2181 11.2998 78.8711 11.8764C78.2708 12.6762 77.5392 12.8064 76.6857 12.2763C76.9765 12.4158 78.0832 12.3972 78.1114 12.2763C77.6143 12.1647 77.2766 11.6253 77.0796 10.6581C76.892 9.69086 76.7982 8.54693 76.7982 7.21699C76.8076 5.88706 76.8451 4.62222 76.9296 3.44109C77.014 2.25066 77.089 1.37644 77.1453 0.827722C77.1547 0.771921 77.1547 0.72542 77.1547 0.678918L72.3243 0.806885V0.344109L61.9038 0.37201L62.7855 3.5806V16.4204L59.2213 11.1882C59.9904 10.6302 60.6001 9.93267 61.0503 9.09564C61.5005 8.25862 61.7256 7.3472 61.7256 6.36137C61.7256 5.10584 61.5193 4.09211 61.0972 3.32019C60.6845 2.53897 60.1311 1.93445 59.4277 1.50664C57.3548 0.195305 54.2503 0.260407 51.6334 0.325509L51.549 0.326954C51.036 0.335749 50.5482 0.344109 50.0858 0.344109L50.0861 0.345104L40.8833 0.410342L40.894 0.344109H36.6077L35.6135 7.07749L35.7823 8.44463L35.5572 7.4402L34.7224 1.20903H30.6424L29.8076 7.4402ZM54.4566 4.20371C54.5785 4.20371 54.738 4.20371 54.9256 4.19441C55.0014 4.19441 55.0779 4.19403 55.1537 4.19366C55.453 4.19217 55.7402 4.19075 55.9198 4.21301C56.3981 4.30602 56.7827 4.54782 57.0734 4.94773C57.3642 5.34764 57.5143 5.81266 57.5143 6.36137C57.5143 6.91939 57.3454 7.403 57.0078 7.80291C56.6701 8.20282 56.2387 8.44463 55.7228 8.52833V4.57572L54.4566 4.20371ZM83.8328 0.344109H89.3385V12.7506L88.0441 13.0017L89.3385 12.9924H94V16.8335H89.3385H85.9056H84.6675V3.5899L83.8328 0.344109ZM54.9246 22.4997C56.1026 21.677 57.3523 21.2606 58.6942 21.2606C60.036 21.2606 61.214 21.677 62.2281 22.4997C63.2524 23.3224 64.0514 24.4194 64.625 25.8109C65.1986 27.2024 65.4854 28.7361 65.4854 30.4322C65.4854 32.1284 65.1576 33.6824 64.5021 35.0739C63.8568 36.4654 62.9758 37.5725 61.8798 38.3952C60.7838 39.2281 59.5648 39.6445 58.2332 39.6445C56.8913 39.6445 55.6724 39.2281 54.5764 38.3952C53.4803 37.5725 52.5994 36.4654 51.9438 35.0739C51.2985 33.6824 50.9707 32.1284 50.9707 30.4322C50.9707 28.7361 51.3395 27.2024 52.0668 25.8109C52.794 24.4194 53.7467 23.3224 54.9246 22.4997ZM59.9643 28.1063C59.5648 27.4563 59.0322 27.1313 58.3766 27.1313L55.1193 27.1719L57.3113 27.4664C56.8913 27.7407 56.5431 28.147 56.2767 28.6751C56.0104 29.2033 55.8773 29.7924 55.8773 30.4424C55.8773 31.3565 56.1026 32.1386 56.5636 32.7886C57.0245 33.4387 57.5776 33.7637 58.2332 33.7637C58.8785 33.7637 59.4317 33.4387 59.8926 32.7886C60.3536 32.1386 60.5789 31.3565 60.5789 30.4424C60.5789 29.5283 60.374 28.7462 59.9643 28.1063ZM1.92603 39.5937C5.02974 39.7664 7.50861 39.3703 9.35239 38.3851C11.2064 37.41 12.4868 36.1099 13.2039 34.4747C13.9311 32.8394 14.1565 31.1432 13.8799 29.3658C13.6033 27.5883 12.8966 25.9937 11.7596 24.5819C10.6226 23.1599 9.12704 22.1747 7.25252 21.6161C5.38825 21.0575 3.22693 21.1895 0.758301 22.0021L1.92603 25.0186V39.5937ZM7.01693 33.652V27.8626L5.44971 27.5477C5.588 27.5477 5.72628 27.5401 5.86456 27.5325C6.00285 27.5248 6.14113 27.5172 6.27942 27.5172C6.78133 27.5172 7.15009 27.5782 7.38569 27.6899C8.17442 28.1063 8.65585 28.604 8.81974 29.1931C8.99388 29.7822 9.07582 30.2494 9.07582 30.5948C9.07582 31.062 8.98363 31.5292 8.79926 31.9862C8.48172 32.7785 7.88761 33.3371 7.01693 33.652ZM25.9055 28.2079C25.9055 26.8367 25.6801 25.7296 25.2192 24.8866C24.7685 24.0334 24.1641 23.3732 23.3959 22.906C21.1321 21.4739 17.7416 21.545 14.8837 21.6161L14.7916 21.6177C14.2313 21.6273 13.6986 21.6364 13.1936 21.6364L14.2589 25.1304V39.6445H19.3498V35.3583L22.2794 39.6445H27.3703L26.7389 38.7177L30.6071 39.5633L31.3037 35.6427L35.739 35.5919L34.3152 35.8662L35.0835 40H39.8773L35.739 21.2911L29.5009 22.6013L29.9823 25.2116L26.2626 38.0185L23.1705 33.4793C24.0105 32.8699 24.6763 32.1081 25.168 31.194C25.6597 30.2799 25.9055 29.2845 25.9055 28.2079ZM17.9772 25.8515C18.1104 25.8515 18.2743 25.8515 18.4894 25.8413C18.5698 25.8413 18.6514 25.8409 18.7325 25.8405C19.0546 25.8389 19.3686 25.8373 19.5649 25.8617C20.0873 25.9632 20.5073 26.2273 20.8248 26.6641C21.1424 27.1008 21.3063 27.6086 21.3063 28.2079C21.3063 28.8173 21.1219 29.3455 20.7531 29.7822C20.3844 30.219 19.9132 30.483 19.3498 30.5744V26.2578L17.9772 25.8515ZM30.7506 32.1589H33.4036L32.8709 27.8321L32.1744 31.905L30.7506 32.1589ZM46.4944 21.5856C45.0399 21.5856 43.7185 21.9919 42.5201 22.8045C41.3318 23.617 40.3792 24.7038 39.6724 26.075C38.9656 27.436 38.6174 28.9493 38.6174 30.6151C38.6174 32.2706 38.9656 33.784 39.6724 35.1552C40.3792 36.5264 41.3318 37.6131 42.5201 38.4257C43.7185 39.2382 45.0399 39.6445 46.4944 39.6445C48.1231 39.6445 49.5879 39.1265 50.8888 38.1007L50.5098 29.1423L44.6711 29.7213L44.4355 32.9715L47.3446 32.7988L46.1154 33.134L46.1359 34.2715C45.2857 34.4239 44.5482 34.302 43.9336 33.9059C43.319 33.5098 42.94 32.8191 42.7966 31.8339C42.6942 31.1331 42.8581 30.3611 43.2781 29.4978C43.78 28.5735 44.5892 27.8727 45.6852 27.3852C46.7812 26.8875 48.0104 26.5828 49.3625 26.4711L48.7684 21.9716C48.0412 21.7177 47.2832 21.5856 46.4944 21.5856ZM71.027 22.1747H65.1474L65.9259 25.171V39.6445H71.027L70.9553 31.3768L70.6071 29.9955L74.2434 39.2382H79.3446V21.6364H74.2434L74.2946 30.1377L74.6429 31.2143L71.027 22.1747ZM82.1512 38.4663C80.963 37.7858 80.0513 36.8412 79.4265 35.6529L82.5302 32.23C82.899 32.4535 83.3087 32.748 83.7594 33.1137C84.2818 33.5504 84.8145 33.9262 85.3573 34.2512C85.9002 34.5762 86.4124 34.6778 86.8836 34.5559C87.3036 34.4036 87.4675 34.2004 87.3548 33.9668C87.2421 33.7231 87.0372 33.4996 86.7402 33.2965C86.1051 32.8699 85.4086 32.5449 84.6608 32.3113C83.7492 32.0573 82.8273 31.58 81.8849 30.8995C80.6659 29.9549 79.9387 28.5837 80.0923 26.5625C80.1435 26.0445 80.246 25.5773 80.3791 25.1405L79.8465 22.6419C81.3932 22.2458 82.8887 21.9614 84.3433 21.7989C85.808 21.6263 87.2114 21.738 88.5737 22.1138C89.9361 22.4896 91.237 23.292 92.4969 24.521L89.3317 28.8884C88.3381 28.0251 87.4879 27.4664 86.7709 27.2024C86.0539 26.9281 85.2139 26.7352 84.2408 26.6133C84.1659 26.6013 84.0892 26.5893 84.0108 26.577L84.0103 26.577C83.7568 26.5373 83.4854 26.4949 83.196 26.4406L84.6915 27.1313C84.5686 27.4664 84.712 27.9032 85.1525 28.1368C85.6749 28.3907 86.2588 28.6243 86.8836 28.8579C87.826 29.183 88.7274 29.5892 89.5878 30.0768C90.4482 30.5541 91.0936 31.2448 91.534 32.1386C91.9745 33.0222 92.0359 34.2411 91.7082 35.7849C91.3394 37.1967 90.6224 38.2022 89.5571 38.8218C88.502 39.4414 87.2933 39.7055 85.9515 39.6242C84.6096 39.5429 83.3497 39.157 82.1512 38.4663Z" fill="white"/>
</svg>
